<svg fill="none" height="83" viewBox="0 0 347 83" width="347" xmlns="http://www.w3.org/2000/svg">
    <path d="m35.224 68h-20.352c-4.416 0-7.904-1.248-10.464-3.744-2.496-2.496-3.744-5.984-3.744-10.464v-20.544c0-4.48 1.248-7.968 3.744-10.464 2.56-2.496 6.048-3.744 10.464-3.744h8.064c4.416 0 7.872 1.248 10.368 3.744s3.744 5.984 3.744 10.464v12.192c0 .96-.448 1.44-1.344 1.44h-27.168c-.64 0-.96.288-.96.864v5.856c0 5.568 2.688 8.352 8.064 8.352h19.584c.896 0 1.344.448 1.344 1.344v3.456c0 .832-.448 1.248-1.344 1.248zm-26.688-26.208h20.736c.64 0 .96-.32.96-.96v-7.392c0-5.504-2.688-8.256-8.064-8.256h-6.528c-5.376 0-8.064 2.752-8.064 8.256v7.392c0 .64.32.96.96.96zm58.866 23.616h-5.376c-4.352 0-7.744-1.248-10.176-3.744s-3.648-5.984-3.648-10.464v-17.952c0-4.48 1.248-7.968 3.744-10.464 2.56-2.496 6.048-3.744 10.464-3.744h20.832c.896 0 1.344.448 1.344 1.344v47.616c0 4.416-1.28 7.872-3.84 10.368-2.496 2.56-5.952 3.84-10.368 3.84h-17.664c-.96 0-1.44-.448-1.44-1.344v-3.552c0-.896.48-1.344 1.44-1.344h16.8c5.376 0 8.064-2.752 8.064-8.256v-7.392h-.384c-1.664 3.392-4.928 5.088-9.792 5.088zm10.176-14.976v-24.384c0-.576-.32-.864-.96-.864h-13.344c-5.376 0-8.064 2.784-8.064 8.352v17.376c0 5.568 2.688 8.352 8.064 8.352h5.376c2.88 0 5.088-.768 6.624-2.304s2.304-3.712 2.304-6.528zm41.738 17.568h-8.256c-4.416 0-7.904-1.248-10.464-3.744-2.4965-2.496-3.7445-5.984-3.7445-10.464v-20.544c0-4.48 1.248-7.968 3.7445-10.464 2.56-2.496 6.048-3.744 10.464-3.744h8.256c4.416 0 7.872 1.248 10.368 3.744 2.56 2.496 3.84 5.984 3.84 10.464v20.544c0 4.48-1.28 7.968-3.84 10.464-2.496 2.496-5.952 3.744-10.368 3.744zm-7.488-6.144h6.72c5.376 0 8.064-2.752 8.064-8.256v-20.16c0-5.504-2.688-8.256-8.064-8.256h-6.72c-5.376 0-8.064 2.752-8.064 8.256v20.16c0 5.504 2.688 8.256 8.064 8.256zm45.888-4.416h9.792c2.048 0 3.488-.416 4.32-1.248.896-.896 1.344-2.368 1.344-4.416v-16.704c0-2.048-.448-3.488-1.344-4.32-.832-.896-2.272-1.344-4.32-1.344h-4.224c-4.416 0-6.624 2.432-6.624 7.296v19.68c0 .704.352 1.056 1.056 1.056zm-13.248 8.544v-63.456c0-1.344.672-2.016001 2.016-2.016001h8.16c1.344 0 2.016.672001 2.016 2.016001v21.6h.384c.704-1.728 1.952-3.04 3.744-3.936s3.68-1.344 5.664-1.344h3.072c5.056 0 8.96 1.344 11.712 4.032s4.128 6.56 4.128 11.616v17.856c0 5.056-1.376 8.928-4.128 11.616s-6.656 4.032-11.712 4.032h-23.04c-1.344 0-2.016-.672-2.016-2.016zm61.187 2.016h-8.16c-1.344 0-2.016-.672-2.016-2.016v-63.456c0-1.344.672-2.016001 2.016-2.016001h8.16c1.344 0 2.016.672001 2.016 2.016001v63.456c0 1.344-.672 2.016-2.016 2.016zm36.487 0h-8.544c-5.056 0-8.96-1.344-11.712-4.032s-4.128-6.56-4.128-11.616v-17.664c0-5.056 1.376-8.928 4.128-11.616s6.656-4.032 11.712-4.032h8.544c4.992 0 8.864 1.376 11.616 4.128 2.816 2.688 4.224 6.528 4.224 11.52v17.664c0 4.992-1.408 8.864-4.224 11.616-2.752 2.688-6.624 4.032-11.616 4.032zm-6.72-10.464h4.896c2.048 0 3.488-.416 4.32-1.248.896-.832 1.344-2.272 1.344-4.32v-16.896c0-2.048-.448-3.488-1.344-4.32-.832-.832-2.272-1.248-4.32-1.248h-4.896c-2.048 0-3.488.416-4.32 1.248s-1.248 2.272-1.248 4.32v16.896c0 2.048.416 3.488 1.248 4.32s2.272 1.248 4.32 1.248zm63.339 1.92v6.624c0 .704-.16 1.216-.48 1.536-.256.256-.768.384-1.536.384h-14.304c-5.056 0-8.96-1.344-11.712-4.032s-4.128-6.56-4.128-11.616v-17.664c0-5.056 1.376-8.928 4.128-11.616s6.656-4.032 11.712-4.032h14.304c1.344 0 2.016.672 2.016 2.016v6.624c0 .704-.16 1.216-.48 1.536-.256.256-.768.384-1.536.384h-12.384c-1.984 0-3.424.448-4.32 1.344-.832.832-1.248 2.272-1.248 4.32v16.512c0 2.048.416 3.52 1.248 4.416.896.832 2.336 1.248 4.32 1.248h12.384c1.344 0 2.016.672 2.016 2.016zm36.301-40.416h9.312c.768 0 1.28.224 1.536.672s.16 1.024-.288 1.728l-12.768 21.024v.384l13.344 22.752c.384.64.416 1.216.096 1.728-.32.448-.896.672-1.728.672h-8.256c-1.088 0-1.888-.128-2.4-.384-.448-.256-.928-.8-1.44-1.632l-12.192-21.408c-.576-1.024-.576-2.08 0-3.168l11.52-20.448c.704-1.28 1.792-1.92 3.264-1.92zm-17.856 48.96h-8.16c-1.344 0-2.016-.672-2.016-2.016v-63.456c0-1.344.672-2.016001 2.016-2.016001h8.16c1.344 0 2.016.672001 2.016 2.016001v63.456c0 1.344-.672 2.016-2.016 2.016z"
          fill="#000"/>
</svg>