<?xml version="1.0" encoding="utf-8"?>
<!-- Generator: Adobe Illustrator 26.0.2, SVG Export Plug-In . SVG Version: 6.00 Build 0)  -->
<svg version="1.1" id="Layer_1" xmlns="http://www.w3.org/2000/svg" xmlns:xlink="http://www.w3.org/1999/xlink" x="0px" y="0px"
	 viewBox="0 0 3804 4056" style="enable-background:new 0 0 3804 4056;" xml:space="preserve">
<style type="text/css">
	.st0{fill:#FCA311;}
	.st1{fill:#FFFFFF;}
</style>
<g>
	<path class="st0" d="M216.6,2047.6c0-455.7,0.1-911.3-0.1-1367c0-81.8,17.4-159.6,56-231.7C348,308,464.7,221,621.1,187.8
		c27.4-5.8,55.3-8.6,83.4-8.8c5,0,10-0.1,15-0.1c800.3,0,1600.7,0.1,2401-0.1c83.6,0,162.8,17.9,236.2,57.8
		c135.7,73.7,220.9,186.4,255.7,336.9c7.3,31.5,10.8,63.7,10.9,96.1c0,4,0.1,8,0.1,12c0,909.7-0.1,1819.3,0.1,2729
		c0,61.3-9.4,120.7-30.6,178.2c-59.2,160.6-196.3,279.6-363.7,316c-32,6.9-64.4,10.8-97.1,10.9c-4.7,0-9.3,0.1-14,0.1
		c-799.7,0-1599.3-0.1-2399,0.1c-82.2,0-160.2-17.4-232.6-56.1c-137.2-73.4-223.4-186.5-258.7-338c-7.3-31.2-10.8-63-11-95.1
		c0-6.7-0.1-13.3-0.1-20C216.6,2953.6,216.6,2500.6,216.6,2047.6z"/>
	<path class="st1" d="M1371,2661.5c-1.7-0.6-3.5-0.9-5.3-0.3c-4-2-8.7,0.4-12.7-1.7c-1.1-0.1-2.2-0.2-3.3-0.3
		c-2.7-1.5-6,0.1-8.7-1.6l-0.8-0.4l-0.9,0.2c-13.4-0.8-26.6-2.5-38.3-10l0,0c-6.1-1.7-13.3-0.2-17.7-6.5l0,0.2
		c-1.4-0.7-3.2-0.5-4.3-1.9l0.1,0.1c-17.4-4.1-32.7-12.2-45.9-24.2l0,0.2c-1-0.3-1.6-1.2-2.4-1.8l0,0c-1-1.3-3-0.8-3.8-2.4l0.2,0.1
		c-16.7-8.1-30.7-19.5-41.9-34.2l0.1,0.2c-1.2-0.3-1.9-1.1-2.2-2.2l0.2,0.2c-1.1-0.3-1.9-1.1-2.2-2.2l0.2,0.2
		c-1.1-0.3-1.9-1.1-2.2-2.2l0.2,0.1c-7.5-4-12.3-10.9-17.5-17.2c-10.2-12.2-19.1-25.3-27.4-38.9c-2.6-4.2-4.8-8.6-5.4-13.6l0,0.1
		c-1.3-1-1-2.9-2.1-4l0,0.1c-1.3-1.1-0.9-3-2-4.1c-5.7-14.9-12.3-29.4-16.9-44.8c-8.1-27-12-54.6-12.8-82.7c-0.1-3-0.1-6-0.1-9
		c0-437.6,0-875.2,0-1312.8c0-52.3,10.8-102,36.4-147.7c47.3-84.4,118.8-135.7,214.3-153.2c18.4-3.4,37-4.1,55.7-4
		c124.7,0,249.3,0,374,0c240,0,479.9,0.2,719.9-0.1c62.8-0.1,120.6,16.2,172.3,51.8c72.4,49.9,115.1,118.8,128.8,205.6
		c2.2,14.2,2.8,28.5,2.8,42.8c0,440.9-0.2,881.9,0.1,1322.8c0.1,143.2-102.2,266.3-239.8,293.8c-1.6,0.3-3.1,1.1-4.7,1.7
		c-13.7,5.6-27.8,8.4-42.7,5.1c-3.2-0.7-6.6-0.1-10-0.1c-372.9,0-745.7,0-1118.6,0C1379.5,2662.3,1375.2,2663.2,1371,2661.5z"/>
	<path class="st1" d="M1914.7,2980.1c-0.3,0.5-0.2,0.9,0.2,1.2c5.6,11.6,8.9,23.5,5.1,36.5c-0.7,2.5-0.1,5.3-0.1,8
		c0,106.2-0.1,212.4,0.1,318.6c0,10.5,1.2,20.9-2.9,30.9c-0.1,0.7-0.2,1.3-0.3,2c1.1,3.7,0.6,7.3-0.5,10.8
		c-5.8,18.7-11.2,37.5-21.6,54.3c-2.1,3.4-4,7-7.8,8.9c-12.3,16.2-25.2,31.8-41.2,44.6c-36.1,29-77.3,44.7-123.4,44.9
		c-143.3,0.5-286.5,1.1-429.8-0.1c-104-0.9-179.2-78.3-193.9-164.3c-2.2-13.2-3.4-26.4-3.4-39.7c0-101.6,0-203.2,0-304.8
		c0-58.1,19.8-108.1,61.4-149c0.9-0.9,1.6-2.1,2.4-3.1c3.4-7.7,10.8-11.5,17-16.3c20.1-15.8,43.4-25,67.5-32.4
		c5.2-1.6,10.6,0.9,15.6-1.5c0.6,0.3,1.2,0.2,1.8-0.2c10.3-4.4,21-3,31.8-3c142.9,0.3,285.8,0.1,428.7,0.3c8.6,0,16.9-3.5,25.7-1.2
		c6.2,1.5,12.3,2.6,17.8,6.1c0.3,0.5,0.7,0.5,1.2,0.2c2.1,1.2,4.8,0.1,6.8,1.8l0,0c1.7,1.8,4.3,0.3,6,1.8c0.4,0.5,0.8,0.6,1.4,0.3
		c1.5,0.7,3.3,0.6,4.6,1.7c0.4,0.5,0.9,0.6,1.4,0.4c7.2,0.1,13.3,3,18.6,7.7l0,0c1,1.3,2.9,0.9,4,2l0.1,0c1,1.3,2.8,0.9,3.9,2l0,0
		c9.7,1.9,17.2,7.4,23.7,14.5l-0.2-0.2c1.1,0.2,1.8,1,2.4,1.9l-0.1-0.1c0.9,0.5,1.5,1.3,2.2,1.8l0.1,0c15.7,7.5,25.8,21.5,37,33.9
		c8.3,9.3,16,19.4,19,32.1l0,0c1.1,1.1,0.7,2.9,2,3.9l0,0.1c1.1,1.1,0.7,3,2,4l0,0c7.5,9.4,11.2,20.2,11.9,32.1l0,0
		C1914.6,2975.3,1913.5,2978.1,1914.7,2980.1z"/>
	<path class="st0" d="M1371,2661.5c11,0.1,22,0.2,33,0.2c323.2,0,646.3,0.2,969.5-0.2c60.5-0.1,121.2,4,181.6-4.1
		c-1.6,2.1-3.9,3.4-4.5,6.4c-0.5,2.3-2.5,4-4.7,4.9c-4.7,2.1-9.6-2.2-12.9-1.1c-4.2,1.4-7.9,4.6-12.8,3.6c-1.2-0.3-3.1-0.9-3.4-1.7
		c-2.6-8-9.2-6-14.9-6c-227.2,0-454.4,0-681.7,0c-145.6,0-291.2,0-436.8-0.1C1379.2,2663.3,1374.7,2664.9,1371,2661.5z"/>
	<path class="st0" d="M1765,2831.4c-33.6-6.6-67.7-4.2-101.5-4.3c-104.2-0.2-208.5-0.2-312.7,0c-29.9,0-59.9-1.5-89.8,2.1
		c3-2.6,7.9-2.2,9.5-7.5c1-3.3,7.9-3.9,10.4-0.6c3.9,5,8.6,4.2,13.5,4.2c41,0,82,0,123,0c100.7,0,201.3,0,302,0
		c5.1,0,10.1,1.2,13.2-5.6c1.9-4.2,7.8-2.9,11.9-1.4c3.8,1.3,7.3,2.9,11.4,3.3C1761.3,2822.2,1762,2828.1,1765,2831.4z"/>
	<path class="st0" d="M1917.1,3375.4c4.5-58.8,1.4-117.7,2.1-176.6c0.5-43.6,0.2-87.2,0.1-130.8c0-28.9,1.4-57.9-4.3-86.5
		c1.5,1.3,2.8,3.2,4.5,3.7c3.8,1.2,5.6,3.3,5.5,7.2c-0.1,3.2,1.6,5.7,2.6,8.5c2.8,7.3,2.2,9.8-4.2,14.9c-1.8,1.5-2.3,3-2.4,5.1
		c0,2.3,0,4.7,0,7c0,105.2,0,210.3,0,315.5c0,5.2-1.2,10.5,4.5,14.3c2.5,1.7,1.7,5.4-0.8,6.9
		C1920.3,3366.9,1919.2,3371.4,1917.1,3375.4z"/>
	<path class="st0" d="M1259.2,2829.5c-6.7,1.8-13.4,3.6-20,5.5c-26.5,7.7-50.3,20.4-71.5,38c-2.8,2.3-5.7,4.5-8.6,6.7
		c0-1.3-0.1-2.6-0.1-4c-0.1-11.5,4.9-17.9,16.4-20.3c2.8-0.6,4.7-1.3,6.5-3.7c5-6.6,11.1-11.3,20.2-10c1,0.2,2.2,0.1,2.5-1
		c2.3-10.7,13-6.9,19.2-11.1c3.1-2.1,5.9,1.6,8.3,3.9c2.7-11.3,9.9-13.8,18.9-6.4C1253.6,2829.5,1256.3,2829.1,1259.2,2829.5z"/>
	<path class="st0" d="M1129,2501.3c10.7,17.5,21.3,35,34.3,50.9c5.2,6.4,11.5,11.8,16,18.9c-2.6,0.1-5.3,0.1-7.9,0.4
		c-5.8,0.7-9.7-1.2-10.5-7.5c-0.2-2.1-0.9-3.8-2.9-4.8c-6.2-3-8.5-7.9-5.9-15.7c-8.4,1.4-12.1-3.1-15.1-9.3
		c-2.3-4.7-5.1-9.3-8.3-13.2C1123,2513.7,1124.1,2507.7,1129,2501.3z"/>
	<path class="st0" d="M1897,2933.3c-9.1-14.5-18.3-29-30-41.6c-8.1-8.7-17.2-16.3-25.9-24.4c4,0,8,0.1,12,0c6,0,10.5,2.3,11.6,8.6
		c0.6,3.4,1.8,5.5,5.5,5.6c0.9,0,2,0.4,2.8,0.9c1.4,0.9,3.7,2,3.7,3c-0.1,9.5,13.9,10.4,12.3,20.8c-0.5,3.5,0.4,5.9,4.4,7.7
		c8.4,3.9,9,7.4,4.7,15.6C1897.5,2930.7,1897.4,2932.1,1897,2933.3z"/>
	<path class="st0" d="M1886.9,3451.4c9.1-16.1,18-32.4,23.3-50.2c2.3-7.9,4.4-15.9,6.6-23.8c8.1,2.9,9.2,4.5,7.8,11.9
		c-0.3,1.6-1.3,3.1-1.4,4.7c-0.5,6.5-3.4,10.4-12.6,9.5c6.7,4.2,7.4,8.3,4.7,13.1c-1.5,2.6-2.3,5.4-2.7,8.5
		c-0.2,1.6-1.1,4.1-2.1,4.3c-8.3,2-7.7,8.2-7.8,14.5c-0.1,4.5-3.3,7.1-7.8,7.5C1892.3,3451.5,1889.6,3451.4,1886.9,3451.4z"/>
	<path class="st0" d="M1185.3,2576.9c14,11.4,28,22.8,41.9,34.2c-14,4.1-20.1,1.9-28.2-10.4c-0.9-1.4-1.6-2.5-3.3-3.3
		c-10.9-4.7-11-5-10.8-16.6C1185,2579.6,1185.2,2578.2,1185.3,2576.9z"/>
	<path class="st0" d="M1233.3,2615c15.3,8.1,30.6,16.1,45.9,24.2c-5.2,1.3-9.7,6.1-15.7,3.9c-5.8-2.2-11.9-4.3-16.3-8.9
		c-2.6-2.7-5-4.5-8.7-5.5C1231.5,2626.8,1230.4,2622.8,1233.3,2615z"/>
	<path class="st0" d="M1301,2647.3c12.8,3.3,25.5,6.6,38.3,10c-3.2,0.3-7-0.7-9.1,2.4c-3.3,4.9-7.7,3.9-12.3,3
		c-2.6-0.5-5.1-1.1-7.6-1.9c-2.9-1-5.7-2.4-5.2-6.1C1305.5,2651.1,1302.6,2649.6,1301,2647.3z"/>
	<path class="st0" d="M1912.9,2973.4c-4-10.7-8-21.4-11.9-32.1c6.8,1.3,11.6,4.8,15.1,10.9c4.1,7,4.1,11.3-1.6,17.6
		C1913.7,2970.8,1913.5,2972.3,1912.9,2973.4z"/>
	<path class="st0" d="M1836.7,2863.9c-7.9-4.8-15.8-9.7-23.7-14.5c1.7-0.1,3.1-0.8,4.6-1.6c7.6-4.1,13-2.1,14.9,6.2
		C1833.4,2857.7,1835.7,2860.4,1836.7,2863.9z"/>
	<path class="st0" d="M1805,2845.3c-6.4-2-12.7-4.4-18.6-7.7c1.4-0.9,2.7-1.9,4.1-2.6c7-3.6,10.4-2,12.6,5.8
		C1803.6,2842.4,1804.4,2843.8,1805,2845.3z"/>
	<path class="st0" d="M1283.3,2640.9c6.2,1.4,12.1,3.4,17.7,6.5c-1.5,0.6-3.2,1-4.6,1.7C1286.9,2653.9,1283.3,2651.7,1283.3,2640.9z
		"/>
	<path class="st0" d="M1353,2659.5c4.3-0.1,8.7-0.5,12.7,1.7C1361.4,2660.8,1356.8,2663,1353,2659.5z"/>
	<path class="st0" d="M1341,2657.5c3-0.2,6.1-0.3,8.7,1.6C1346.7,2659.1,1343.5,2660.4,1341,2657.5z"/>
	<path class="st0" d="M1773,2833.4c-2.4,0.1-4.8,0-6.8-1.8C1768.6,2831.5,1771.2,2830.8,1773,2833.4z"/>
	<path class="st0" d="M1778.9,2835.3c-2.3,0.2-4.3-0.2-6-1.8C1775.1,2833.4,1777.4,2833,1778.9,2835.3z"/>
	<path class="st0" d="M1914.7,2980.1c-1.8-1.9-1.9-4.3-1.8-6.7C1915.5,2975.1,1914.9,2977.7,1914.7,2980.1z"/>
	<path class="st0" d="M1125,2493.2c1.5,1,2,2.4,2,4.1C1125.3,2496.5,1125,2494.9,1125,2493.2z"/>
	<path class="st0" d="M1127,2497.3c1.5,0.9,2,2.4,2.1,4C1127.3,2500.5,1127,2499,1127,2497.3z"/>
	<path class="st0" d="M1227.1,2611c1.7,0.2,3,0.9,3.8,2.4C1229.2,2613.3,1227.7,2612.9,1227.1,2611z"/>
	<path class="st0" d="M1784.9,2837.3c-1.8,0.2-3.4-0.2-4.6-1.7C1782.1,2835.4,1783.8,2835.5,1784.9,2837.3z"/>
	<path class="st0" d="M1809,2847.3c-1.7,0-3-0.6-4-2C1806.6,2845.4,1808.1,2845.8,1809,2847.3z"/>
	<path class="st0" d="M1813,2849.3c-1.7,0-3-0.6-3.9-2C1810.7,2847.4,1812.1,2847.8,1813,2849.3z"/>
	<path class="st0" d="M1279,2639.1c1.7,0,3.3,0.2,4.3,1.9C1281.5,2641.3,1279.8,2641.1,1279,2639.1z"/>
	<path class="st0" d="M1899,2937.3c-1.4-1-2-2.3-2-3.9C1898.6,2934.2,1898.9,2935.7,1899,2937.3z"/>
	<path class="st0" d="M1901,2941.3c-1.4-1-2-2.3-2-4C1900.6,2938.2,1900.9,2939.7,1901,2941.3z"/>
	<path class="st0" d="M1179.2,2570.9c1.2,0.3,2,1,2.2,2.2C1180.1,2572.9,1179.4,2572.1,1179.2,2570.9z"/>
	<path class="st0" d="M1181.2,2572.9c1.2,0.3,2,1,2.2,2.2C1182.1,2574.9,1181.4,2574.2,1181.2,2572.9z"/>
	<path class="st0" d="M1183.2,2574.9c1.2,0.3,2,1,2.2,2.2C1184.1,2576.9,1183.4,2576.2,1183.2,2574.9z"/>
	<path class="st0" d="M1230.9,2613.4c1.2,0.1,2,0.6,2.4,1.8C1232.5,2614.6,1231.7,2614,1230.9,2613.4z"/>
	<path class="st0" d="M1838.9,2865.6c-1.2-0.2-2.1-0.7-2.4-1.9C1837.7,2863.8,1838.5,2864.5,1838.9,2865.6z"/>
	<path class="st0" d="M1841,2867.3c-1.1-0.1-1.9-0.7-2.2-1.8C1839.5,2866.1,1840.2,2866.7,1841,2867.3z"/>
</g>
</svg>
